<svg width="426" height="329" viewBox="0 0 426 329" fill="none" xmlns="http://www.w3.org/2000/svg">
<path d="M388.905 62.6038C393.773 71.0341 393.604 81.9197 388.998 94.4681C384.393 107.013 375.376 121.148 362.669 135.995C337.259 165.683 297.169 198.129 248.419 226.275C199.669 254.421 151.526 272.916 113.109 280.078C93.8988 283.659 77.1486 284.401 63.9818 282.116C50.8115 279.831 41.3002 274.534 36.433 266.104C31.5658 257.674 31.7339 246.788 36.3401 234.24C40.945 221.695 49.9625 207.559 62.6692 192.713C88.0796 163.024 128.169 130.579 176.919 102.433C225.669 74.2871 273.812 55.7913 312.229 48.6297C331.44 45.0484 348.19 44.3067 361.357 46.5912C374.527 48.8763 384.038 54.1736 388.905 62.6038Z" stroke="#999999"/>
</svg>
